<svg width="496" height="512" viewBox="0 0 496 512" fill="none" xmlns="http://www.w3.org/2000/svg">
<path d="M248 8C111.1 8 0 119.1 0 256C0 392.9 111.1 504 248 504C384.9 504 496 392.9 496 256C496 119.1 384.9 8 248 8Z" fill="#1ED760"/>
<path d="M406.6 231.1C401.4 231.1 398.2 229.8 393.7 227.2C322.5 184.7 195.2 174.5 112.8 197.5C109.2 198.5 104.7 200.1 99.9001 200.1C86.7001 200.1 76.6001 189.8 76.6001 176.5C76.6001 162.9 85.0001 155.2 94.0001 152.6C129.2 142.3 168.6 137.4 211.5 137.4C284.5 137.4 361 152.6 416.9 185.2C424.7 189.7 429.8 195.9 429.8 207.8C429.8 221.4 418.8 231.1 406.6 231.1ZM375.6 307.3C370.4 307.3 366.9 305 363.3 303.1C300.8 266.1 207.6 251.2 124.7 273.7C119.9 275 117.3 276.3 112.8 276.3C102.1 276.3 93.4001 267.6 93.4001 256.9C93.4001 246.2 98.6001 239.1 108.9 236.2C136.7 228.4 165.1 222.6 206.7 222.6C271.6 222.6 334.3 238.7 383.7 268.1C391.8 272.9 395 279.1 395 287.8C394.9 298.6 386.5 307.3 375.6 307.3ZM348.7 372.9C344.5 372.9 341.9 371.6 338 369.3C275.6 331.7 203 330.1 131.3 344.8C127.4 345.8 122.3 347.4 119.4 347.4C109.7 347.4 103.6 339.7 103.6 331.6C103.6 321.3 109.7 316.4 117.2 314.8C199.1 296.7 282.8 298.3 354.2 341C360.3 344.9 363.9 348.4 363.9 357.5C363.9 366.6 356.8 372.9 348.7 372.9Z" fill="black"/>
<path d="M412.049 6.77562C416.631 2.87126 423.369 2.87126 427.951 6.77562L440.247 17.2544C442.21 18.9275 444.651 19.9386 447.223 20.1438L463.327 21.4289C469.327 21.9077 474.092 26.6726 474.571 32.673L475.856 48.7773C476.061 51.3487 477.073 53.7897 478.746 55.753L489.224 68.0492C493.129 72.6307 493.129 79.3693 489.224 83.9508L478.746 96.247C477.073 98.2103 476.061 100.651 475.856 103.223L474.571 119.327C474.092 125.327 469.327 130.092 463.327 130.571L447.223 131.856C444.651 132.061 442.21 133.073 440.247 134.746L427.951 145.224C423.369 149.129 416.631 149.129 412.049 145.224L399.753 134.746C397.79 133.073 395.349 132.061 392.777 131.856L376.673 130.571C370.673 130.092 365.908 125.327 365.429 119.327L364.144 103.223C363.939 100.651 362.927 98.2103 361.254 96.247L350.776 83.9508C346.871 79.3693 346.871 72.6307 350.776 68.0492L361.254 55.753C362.927 53.7897 363.939 51.3487 364.144 48.7773L365.429 32.673C365.908 26.6726 370.673 21.9077 376.673 21.4289L392.777 20.1438C395.349 19.9386 397.79 18.9275 399.753 17.2544L412.049 6.77562Z" fill="black"/>
<path d="M382.178 92.0323H373.841L384.669 59.9384H394.996L405.825 92.0323H397.488L389.95 68.0246H389.7L382.178 92.0323ZM381.065 79.4016H398.491V85.2938H381.065V79.4016ZM409.722 92.0323V59.9384H422.979C425.382 59.9384 427.456 60.372 429.2 61.2391C430.955 62.0958 432.308 63.3285 433.259 64.9374C434.21 66.5358 434.685 68.432 434.685 70.6259C434.685 72.8512 434.199 74.7421 433.228 76.2988C432.256 77.8449 430.877 79.0255 429.091 79.8404C427.304 80.6448 425.189 81.047 422.744 81.047H414.36V74.9354H421.302C422.472 74.9354 423.449 74.7839 424.233 74.4809C425.027 74.1675 425.627 73.6974 426.035 73.0706C426.442 72.4333 426.646 71.6184 426.646 70.6259C426.646 69.6334 426.442 68.8133 426.035 68.1656C425.627 67.5074 425.027 67.0164 424.233 66.6925C423.439 66.3582 422.462 66.1911 421.302 66.1911H417.479V92.0323H409.722ZM427.79 77.3644L435.782 92.0323H427.32L419.484 77.3644H427.79ZM439.381 92.0323V59.9384H452.639C455.041 59.9384 457.115 60.372 458.86 61.2391C460.615 62.0958 461.968 63.3285 462.919 64.9374C463.869 66.5358 464.345 68.432 464.345 70.6259C464.345 72.8512 463.859 74.7421 462.887 76.2988C461.916 77.8449 460.537 79.0255 458.75 79.8404C456.964 80.6448 454.848 81.047 452.404 81.047H444.02V74.9354H450.962C452.132 74.9354 453.109 74.7839 453.892 74.4809C454.686 74.1675 455.287 73.6974 455.694 73.0706C456.102 72.4333 456.306 71.6184 456.306 70.6259C456.306 69.6334 456.102 68.8133 455.694 68.1656C455.287 67.5074 454.686 67.0164 453.892 66.6925C453.098 66.3582 452.121 66.1911 450.962 66.1911H447.138V92.0323H439.381ZM457.45 77.3644L465.442 92.0323H456.979L449.144 77.3644H457.45Z" fill="#1ED760"/>
</svg>
